<svg xmlns="http://www.w3.org/2000/svg" xmlns:xlink="http://www.w3.org/1999/xlink" width="900" zoomAndPan="magnify" viewBox="0 0 675 337.499995" height="450" preserveAspectRatio="xMidYMid meet" version="1.0"><defs><g/><clipPath id="e7b7361981"><path d="M 0.5 0 L 670.257812 0 L 670.257812 337 L 0.5 337 Z M 0.5 0 " clip-rule="nonzero"/></clipPath><clipPath id="00bc5f060a"><path d="M -114.25 -3.117188 L 510.492188 -3.117188 C 598.589844 -3.117188 670.007812 68.300781 670.007812 156.398438 L 670.007812 177.488281 C 670.007812 265.585938 598.589844 337 510.492188 337 L -114.25 337 C -202.347656 337 -273.761719 265.585938 -273.761719 177.488281 L -273.761719 156.398438 C -273.761719 68.300781 -202.347656 -3.117188 -114.25 -3.117188 Z M -114.25 -3.117188 " clip-rule="nonzero"/></clipPath><clipPath id="4cdd2bf047"><path d="M 0.5 0 L 670.066406 0 L 670.066406 337 L 0.5 337 Z M 0.5 0 " clip-rule="nonzero"/></clipPath><clipPath id="ea20fac75b"><path d="M -114.25 -3.117188 L 510.492188 -3.117188 C 598.589844 -3.117188 670.007812 68.300781 670.007812 156.398438 L 670.007812 177.488281 C 670.007812 265.585938 598.589844 337 510.492188 337 L -114.25 337 C -202.347656 337 -273.761719 265.585938 -273.761719 177.488281 L -273.761719 156.398438 C -273.761719 68.300781 -202.347656 -3.117188 -114.25 -3.117188 Z M -114.25 -3.117188 " clip-rule="nonzero"/></clipPath><clipPath id="865a16a4a2"><rect x="0" width="671" y="0" height="337"/></clipPath><clipPath id="4659514be1"><rect x="0" width="522" y="0" height="337"/></clipPath><clipPath id="5a0d827447"><path d="M 0.5 55.710938 L 530 55.710938 L 530 337 L 0.5 337 Z M 0.5 55.710938 " clip-rule="nonzero"/></clipPath><clipPath id="3fc83bea21"><path d="M 55.15625 55.710938 L 529.316406 337 L -419.003906 337 Z M 55.15625 55.710938 " clip-rule="nonzero"/></clipPath><clipPath id="b1b62ea0fb"><path d="M 0.5 0.710938 L 529.394531 0.710938 L 529.394531 282 L 0.5 282 Z M 0.5 0.710938 " clip-rule="nonzero"/></clipPath><clipPath id="fb0b44be45"><path d="M 55.15625 0.710938 L 529.316406 282 L -419.003906 282 Z M 55.15625 0.710938 " clip-rule="nonzero"/></clipPath><clipPath id="a7978d4ae1"><rect x="0" width="530" y="0" height="282"/></clipPath></defs><g clip-path="url(#e7b7361981)"><g clip-path="url(#00bc5f060a)"><g transform="matrix(1, 0, 0, 1, -0.000000000000000111, 0)"><g clip-path="url(#865a16a4a2)"><g clip-path="url(#4cdd2bf047)"><g clip-path="url(#ea20fac75b)"><path fill="#5170ff" d="M -273.761719 -3.117188 L 670.257812 -3.117188 L 670.257812 337 L -273.761719 337 Z M -273.761719 -3.117188 " fill-opacity="1" fill-rule="nonzero"/></g></g></g></g></g></g><g transform="matrix(1, 0, 0, 1, 76, 0)"><g clip-path="url(#4659514be1)"><g fill="#e6e6e6" fill-opacity="1"><g transform="translate(15.330289, 56.181113)"><g><path d="M 23.640625 14.9375 C 19.460938 12.476562 15.769531 9.507812 12.5625 6.03125 C 9.351562 2.550781 7.191406 -0.835938 6.078125 -4.140625 L 14.171875 -9.90625 C 15.359375 -6.851562 17.238281 -3.820312 19.8125 -0.8125 C 22.382812 2.1875 25.300781 4.644531 28.5625 6.5625 C 32.59375 8.925781 35.976562 10.046875 38.71875 9.921875 C 41.46875 9.804688 43.46875 8.691406 44.71875 6.578125 C 45.625 5.035156 45.816406 3.429688 45.296875 1.765625 C 44.785156 0.109375 43.84375 -1.503906 42.46875 -3.078125 C 41.09375 -4.648438 39.144531 -6.664062 36.625 -9.125 C 33.070312 -12.53125 30.304688 -15.472656 28.328125 -17.953125 C 26.347656 -20.441406 25.050781 -23.269531 24.4375 -26.4375 C 23.832031 -29.601562 24.578125 -32.96875 26.671875 -36.53125 C 28.441406 -39.53125 30.859375 -41.78125 33.921875 -43.28125 C 36.984375 -44.78125 40.578125 -45.285156 44.703125 -44.796875 C 48.835938 -44.316406 53.28125 -42.679688 58.03125 -39.890625 C 61.332031 -37.953125 64.34375 -35.628906 67.0625 -32.921875 C 69.789062 -30.210938 71.859375 -27.398438 73.265625 -24.484375 L 65.515625 -18.515625 C 63.941406 -21.304688 62.078125 -23.820312 59.921875 -26.0625 C 57.765625 -28.3125 55.476562 -30.144531 53.0625 -31.5625 C 49.082031 -33.90625 45.722656 -34.972656 42.984375 -34.765625 C 40.253906 -34.566406 38.238281 -33.359375 36.9375 -31.140625 C 36.03125 -29.585938 35.84375 -27.992188 36.375 -26.359375 C 36.914062 -24.722656 37.867188 -23.117188 39.234375 -21.546875 C 40.609375 -19.984375 42.554688 -17.976562 45.078125 -15.53125 C 48.566406 -12.21875 51.300781 -9.300781 53.28125 -6.78125 C 55.269531 -4.257812 56.570312 -1.429688 57.1875 1.703125 C 57.8125 4.847656 57.09375 8.175781 55.03125 11.6875 C 53.269531 14.6875 50.863281 16.921875 47.8125 18.390625 C 44.757812 19.867188 41.15625 20.359375 37 19.859375 C 32.851562 19.367188 28.398438 17.726562 23.640625 14.9375 Z M 23.640625 14.9375 "/></g></g></g><g fill="#e6e6e6" fill-opacity="1"><g transform="translate(64.066766, 84.816166)"><g><path d="M 40.140625 -53.75 L 49.8125 -48.0625 L 16.03125 9.421875 L 6.359375 3.734375 Z M 40.140625 -53.75 "/></g></g></g><g fill="#e6e6e6" fill-opacity="1"><g transform="translate(86.459191, 97.972806)"><g><path d="M 30.671875 -37.640625 L 40.34375 -31.953125 L 16.03125 9.421875 L 6.359375 3.734375 Z M 39.546875 -41.59375 C 37.785156 -42.625 36.632812 -44.039062 36.09375 -45.84375 C 35.5625 -47.65625 35.78125 -49.390625 36.75 -51.046875 C 37.726562 -52.691406 39.132812 -53.722656 40.96875 -54.140625 C 42.8125 -54.554688 44.613281 -54.25 46.375 -53.21875 C 48.125 -52.1875 49.285156 -50.789062 49.859375 -49.03125 C 50.429688 -47.269531 50.242188 -45.585938 49.296875 -43.984375 C 48.296875 -42.273438 46.867188 -41.179688 45.015625 -40.703125 C 43.171875 -40.234375 41.347656 -40.53125 39.546875 -41.59375 Z M 39.546875 -41.59375 "/></g></g></g><g fill="#e6e6e6" fill-opacity="1"><g transform="translate(108.851615, 111.129447)"><g><path d="M 80.65625 -29.953125 L 46.875 27.53125 L 37.578125 22.078125 L 40.71875 16.734375 C 37.957031 17.765625 35.113281 18.078125 32.1875 17.671875 C 29.269531 17.265625 26.390625 16.222656 23.546875 14.546875 C 19.566406 12.210938 16.503906 9.234375 14.359375 5.609375 C 12.210938 1.992188 11.1875 -1.957031 11.28125 -6.25 C 11.375 -10.539062 12.648438 -14.773438 15.109375 -18.953125 C 17.566406 -23.128906 20.632812 -26.285156 24.3125 -28.421875 C 28 -30.566406 31.945312 -31.585938 36.15625 -31.484375 C 40.363281 -31.378906 44.457031 -30.160156 48.4375 -27.828125 C 51.175781 -26.210938 53.410156 -24.269531 55.140625 -22 C 56.867188 -19.738281 57.984375 -17.207031 58.484375 -14.40625 L 70.96875 -35.640625 Z M 29.578125 6.953125 C 31.890625 8.316406 34.285156 9.015625 36.765625 9.046875 C 39.253906 9.085938 41.617188 8.441406 43.859375 7.109375 C 46.097656 5.785156 47.976562 3.832031 49.5 1.25 C 51.007812 -1.332031 51.796875 -3.921875 51.859375 -6.515625 C 51.929688 -9.117188 51.347656 -11.492188 50.109375 -13.640625 C 48.867188 -15.796875 47.09375 -17.554688 44.78125 -18.921875 C 42.457031 -20.285156 40.054688 -20.984375 37.578125 -21.015625 C 35.097656 -21.054688 32.734375 -20.410156 30.484375 -19.078125 C 28.242188 -17.753906 26.367188 -15.800781 24.859375 -13.21875 C 23.335938 -10.632812 22.546875 -8.039062 22.484375 -5.4375 C 22.421875 -2.84375 23.003906 -0.472656 24.234375 1.671875 C 25.472656 3.828125 27.253906 5.585938 29.578125 6.953125 Z M 29.578125 6.953125 "/></g></g></g><g fill="#e6e6e6" fill-opacity="1"><g transform="translate(162.082094, 142.404945)"><g><path d="M 30.671875 -37.640625 L 40.34375 -31.953125 L 16.03125 9.421875 L 6.359375 3.734375 Z M 39.546875 -41.59375 C 37.785156 -42.625 36.632812 -44.039062 36.09375 -45.84375 C 35.5625 -47.65625 35.78125 -49.390625 36.75 -51.046875 C 37.726562 -52.691406 39.132812 -53.722656 40.96875 -54.140625 C 42.8125 -54.554688 44.613281 -54.25 46.375 -53.21875 C 48.125 -52.1875 49.285156 -50.789062 49.859375 -49.03125 C 50.429688 -47.269531 50.242188 -45.585938 49.296875 -43.984375 C 48.296875 -42.273438 46.867188 -41.179688 45.015625 -40.703125 C 43.171875 -40.234375 41.347656 -40.53125 39.546875 -41.59375 Z M 39.546875 -41.59375 "/></g></g></g><g fill="#e6e6e6" fill-opacity="1"><g transform="translate(184.474519, 155.561585)"><g><path d="M 54.40625 -24.3125 C 59.625 -21.25 62.910156 -17.269531 64.265625 -12.375 C 65.628906 -7.476562 64.554688 -2.03125 61.046875 3.96875 L 47.109375 27.671875 L 37.421875 21.984375 L 50.625 -0.484375 C 52.75 -4.097656 53.5 -7.320312 52.875 -10.15625 C 52.25 -12.988281 50.359375 -15.332031 47.203125 -17.1875 C 43.640625 -19.28125 40.191406 -19.859375 36.859375 -18.921875 C 33.535156 -17.992188 30.691406 -15.519531 28.328125 -11.5 L 16.03125 9.421875 L 6.359375 3.734375 L 30.671875 -37.640625 L 39.890625 -32.21875 L 36.75 -26.859375 C 39.457031 -27.835938 42.316406 -28.101562 45.328125 -27.65625 C 48.335938 -27.21875 51.363281 -26.101562 54.40625 -24.3125 Z M 54.40625 -24.3125 "/></g></g></g><g fill="#e6e6e6" fill-opacity="1"><g transform="translate(237.55003, 186.746033)"><g><path d="M 71.734375 -13.515625 L 51.109375 21.578125 C 42.546875 36.148438 30.820312 39.066406 15.9375 30.328125 C 11.957031 27.984375 8.484375 25.265625 5.515625 22.171875 C 2.554688 19.078125 0.472656 15.882812 -0.734375 12.59375 L 7.890625 7.859375 C 8.804688 10.410156 10.378906 12.953125 12.609375 15.484375 C 14.847656 18.015625 17.390625 20.113281 20.234375 21.78125 C 24.773438 24.457031 28.710938 25.382812 32.046875 24.5625 C 35.378906 23.738281 38.289062 21.210938 40.78125 16.984375 L 42.0625 14.8125 C 39.34375 15.65625 36.519531 15.84375 33.59375 15.375 C 30.675781 14.90625 27.796875 13.832031 24.953125 12.15625 C 21.023438 9.851562 17.96875 6.929688 15.78125 3.390625 C 13.59375 -0.148438 12.476562 -3.984375 12.4375 -8.109375 C 12.394531 -12.234375 13.53125 -16.265625 15.84375 -20.203125 C 18.144531 -24.117188 21.097656 -27.046875 24.703125 -28.984375 C 28.304688 -30.929688 32.179688 -31.800781 36.328125 -31.59375 C 40.472656 -31.382812 44.507812 -30.128906 48.4375 -27.828125 C 51.4375 -26.066406 53.875 -23.972656 55.75 -21.546875 C 57.625 -19.117188 58.796875 -16.414062 59.265625 -13.4375 L 62.5 -18.9375 Z M 31.265625 4.8125 C 34.929688 6.96875 38.578125 7.632812 42.203125 6.8125 C 45.835938 6 48.691406 3.832031 50.765625 0.3125 C 52.796875 -3.144531 53.273438 -6.644531 52.203125 -10.1875 C 51.128906 -13.726562 48.757812 -16.578125 45.09375 -18.734375 C 41.375 -20.921875 37.703125 -21.617188 34.078125 -20.828125 C 30.453125 -20.046875 27.625 -17.925781 25.59375 -14.46875 C 23.519531 -10.945312 23.015625 -7.398438 24.078125 -3.828125 C 25.148438 -0.253906 27.546875 2.625 31.265625 4.8125 Z M 31.265625 4.8125 "/></g></g></g><g fill="#e6e6e6" fill-opacity="1"><g transform="translate(291.322884, 218.340204)"><g><path d="M 62.265625 -1.34375 C 64.691406 1.394531 66.109375 4.429688 66.515625 7.765625 C 66.921875 11.097656 66.125 14.46875 64.125 17.875 C 61.351562 22.570312 57.410156 25.132812 52.296875 25.5625 C 47.179688 26 41.164062 24.1875 34.25 20.125 L 7.28125 4.28125 L 39.140625 -49.953125 L 64.5625 -35.03125 C 70.957031 -31.257812 75.148438 -27.101562 77.140625 -22.5625 C 79.140625 -18.03125 78.847656 -13.566406 76.265625 -9.171875 C 74.691406 -6.492188 72.675781 -4.484375 70.21875 -3.140625 C 67.769531 -1.804688 65.117188 -1.207031 62.265625 -1.34375 Z M 44.5625 -36.140625 L 35.78125 -21.1875 L 50.046875 -12.8125 C 53.554688 -10.75 56.625 -9.796875 59.25 -9.953125 C 61.882812 -10.109375 63.910156 -11.398438 65.328125 -13.828125 C 66.785156 -16.304688 66.941406 -18.734375 65.796875 -21.109375 C 64.660156 -23.484375 62.335938 -25.703125 58.828125 -27.765625 Z M 38.265625 11.84375 C 46.054688 16.425781 51.484375 16.113281 54.546875 10.90625 C 57.609375 5.6875 55.242188 0.785156 47.453125 -3.796875 L 31.171875 -13.359375 L 21.984375 2.28125 Z M 38.265625 11.84375 "/></g></g></g><g fill="#e6e6e6" fill-opacity="1"><g transform="translate(350.287057, 252.984527)"><g><path d="M 57.265625 6.140625 C 56.867188 6.804688 56.253906 7.734375 55.421875 8.921875 L 22.953125 -10.15625 C 21.734375 -6.78125 21.800781 -3.492188 23.15625 -0.296875 C 24.507812 2.890625 26.96875 5.53125 30.53125 7.625 C 35.070312 10.289062 39.695312 10.988281 44.40625 9.71875 L 46.109375 18.75 C 42.941406 19.875 39.601562 20.164062 36.09375 19.625 C 32.582031 19.09375 29.046875 17.78125 25.484375 15.6875 C 20.941406 13.019531 17.46875 9.765625 15.0625 5.921875 C 12.65625 2.085938 11.460938 -1.992188 11.484375 -6.328125 C 11.503906 -10.660156 12.710938 -14.867188 15.109375 -18.953125 C 17.472656 -22.984375 20.519531 -26.070312 24.25 -28.21875 C 27.976562 -30.363281 32 -31.390625 36.3125 -31.296875 C 40.625 -31.203125 44.820312 -29.953125 48.90625 -27.546875 C 52.925781 -25.179688 56.003906 -22.175781 58.140625 -18.53125 C 60.273438 -14.882812 61.285156 -10.921875 61.171875 -6.640625 C 61.054688 -2.359375 59.753906 1.898438 57.265625 6.140625 Z M 44.359375 -19.78125 C 41.265625 -21.601562 38.101562 -22.226562 34.875 -21.65625 C 31.65625 -21.09375 28.921875 -19.421875 26.671875 -16.640625 L 50.125 -2.84375 C 51.476562 -6.082031 51.644531 -9.25 50.625 -12.34375 C 49.601562 -15.445312 47.515625 -17.925781 44.359375 -19.78125 Z M 44.359375 -19.78125 "/></g></g></g><g fill="#e6e6e6" fill-opacity="1"><g transform="translate(398.481157, 281.300908)"><g><path d="M 46.734375 -28.828125 C 52.828125 -25.242188 56.628906 -21.046875 58.140625 -16.234375 C 59.660156 -11.421875 58.691406 -6.066406 55.234375 -0.171875 L 40.984375 24.078125 L 31.84375 18.71875 L 34.796875 13.6875 C 32.554688 14.78125 30.054688 15.160156 27.296875 14.828125 C 24.546875 14.492188 21.613281 13.414062 18.5 11.59375 C 15.40625 9.769531 13.003906 7.644531 11.296875 5.21875 C 9.597656 2.800781 8.671875 0.28125 8.515625 -2.34375 C 8.359375 -4.96875 8.976562 -7.472656 10.375 -9.859375 C 12.5625 -13.578125 15.691406 -15.742188 19.765625 -16.359375 C 23.847656 -16.984375 28.863281 -15.550781 34.8125 -12.0625 L 45.5 -5.78125 L 45.859375 -6.390625 C 47.554688 -9.285156 47.992188 -12.015625 47.171875 -14.578125 C 46.359375 -17.140625 44.25 -19.421875 40.84375 -21.421875 C 38.519531 -22.785156 36.019531 -23.769531 33.34375 -24.375 C 30.664062 -24.976562 28.179688 -25.085938 25.890625 -24.703125 L 26.21875 -33.984375 C 29.363281 -34.367188 32.71875 -34.101562 36.28125 -33.1875 C 39.84375 -32.28125 43.328125 -30.828125 46.734375 -28.828125 Z M 24.671875 5.75 C 27.097656 7.164062 29.578125 7.875 32.109375 7.875 C 34.648438 7.875 36.910156 7.066406 38.890625 5.453125 L 41.71875 0.65625 L 31.734375 -5.21875 C 26.148438 -8.5 22.28125 -8.3125 20.125 -4.65625 C 19.09375 -2.894531 18.972656 -1.085938 19.765625 0.765625 C 20.554688 2.628906 22.191406 4.289062 24.671875 5.75 Z M 24.671875 5.75 "/></g></g></g><g fill="#e6e6e6" fill-opacity="1"><g transform="translate(445.513039, 308.934429)"><g><path d="M 36.328125 -26.171875 C 41.671875 -28.878906 47.851562 -28.171875 54.875 -24.046875 L 49.453125 -14.8125 C 48.722656 -15.445312 48.019531 -15.960938 47.34375 -16.359375 C 43.570312 -18.578125 39.984375 -19.210938 36.578125 -18.265625 C 33.171875 -17.316406 30.253906 -14.78125 27.828125 -10.65625 L 16.03125 9.421875 L 6.359375 3.734375 L 30.671875 -37.640625 L 39.890625 -32.21875 Z M 36.328125 -26.171875 "/></g></g></g></g></g><g clip-path="url(#5a0d827447)"><g clip-path="url(#3fc83bea21)"><g transform="matrix(1, 0, 0, 1, -0.000000000000000111, 55)"><g clip-path="url(#a7978d4ae1)"><g clip-path="url(#b1b62ea0fb)"><g clip-path="url(#fb0b44be45)"><path fill="#e6e6e6" d="M -419.003906 0.710938 L 529.25 0.710938 L 529.25 282 L -419.003906 282 Z M -419.003906 0.710938 " fill-opacity="1" fill-rule="nonzero"/></g></g></g></g></g></g></svg>