<svg xmlns="http://www.w3.org/2000/svg" xmlns:xlink="http://www.w3.org/1999/xlink" width="300" zoomAndPan="magnify" viewBox="0 0 224.87999 84.749999" height="113" preserveAspectRatio="xMidYMid meet" version="1.0"><defs><clipPath id="ca3b62330e"><path d="M 1.695312 6.253906 L 223.789062 6.253906 L 223.789062 78.789062 L 1.695312 78.789062 Z M 1.695312 6.253906 " clip-rule="nonzero"/></clipPath><clipPath id="1d8b4c20fd"><path d="M 1.695312 21.207031 L 1.695312 63.867188 C 1.695312 72.128906 8.390625 78.824219 16.648438 78.824219 L 209.003906 78.824219 C 217.265625 78.824219 223.960938 72.128906 223.960938 63.867188 L 223.960938 21.207031 C 223.960938 12.949219 217.265625 6.253906 209.003906 6.253906 L 16.648438 6.253906 C 8.390625 6.253906 1.695312 12.949219 1.695312 21.207031 Z M 1.695312 21.207031 " clip-rule="nonzero"/></clipPath><clipPath id="ba99738234"><path d="M -1.6875 5.964844 L 223.796875 5.964844 C 226.757812 5.964844 229.601562 7.140625 231.695312 9.234375 C 233.789062 11.328125 234.964844 14.171875 234.964844 17.132812 L 234.964844 68.59375 C 234.964844 71.550781 233.789062 74.394531 231.695312 76.488281 C 229.601562 78.582031 226.757812 79.761719 223.796875 79.761719 L -1.6875 79.761719 C -4.648438 79.761719 -7.492188 78.582031 -9.585938 76.488281 C -11.679688 74.394531 -12.855469 71.550781 -12.855469 68.59375 L -12.855469 17.132812 C -12.855469 14.171875 -11.679688 11.328125 -9.585938 9.234375 C -7.492188 7.140625 -4.648438 5.964844 -1.6875 5.964844 Z M -1.6875 5.964844 " clip-rule="nonzero"/></clipPath><clipPath id="5c8bd44915"><path d="M -1.6875 5.964844 L 223.796875 5.964844 C 226.757812 5.964844 229.601562 7.140625 231.695312 9.234375 C 233.789062 11.328125 234.964844 14.171875 234.964844 17.132812 L 234.964844 68.59375 C 234.964844 71.550781 233.789062 74.394531 231.695312 76.488281 C 229.601562 78.582031 226.757812 79.761719 223.796875 79.761719 L -1.6875 79.761719 C -4.648438 79.761719 -7.492188 78.582031 -9.585938 76.488281 C -11.679688 74.394531 -12.855469 71.550781 -12.855469 68.59375 L -12.855469 17.132812 C -12.855469 14.171875 -11.679688 11.328125 -9.585938 9.234375 C -7.492188 7.140625 -4.648438 5.964844 -1.6875 5.964844 Z M -1.6875 5.964844 " clip-rule="nonzero"/></clipPath><clipPath id="fc10e563df"><path d="M 41 13 L 59 13 L 59 30 L 41 30 Z M 41 13 " clip-rule="nonzero"/></clipPath><clipPath id="c2eaa7feb8"><path d="M 1.695312 21.207031 L 1.695312 63.867188 C 1.695312 72.128906 8.390625 78.824219 16.648438 78.824219 L 209.003906 78.824219 C 217.265625 78.824219 223.960938 72.128906 223.960938 63.867188 L 223.960938 21.207031 C 223.960938 12.949219 217.265625 6.253906 209.003906 6.253906 L 16.648438 6.253906 C 8.390625 6.253906 1.695312 12.949219 1.695312 21.207031 Z M 1.695312 21.207031 " clip-rule="nonzero"/></clipPath><clipPath id="b6f03a622e"><path d="M 57 10 L 68 10 L 68 34 L 57 34 Z M 57 10 " clip-rule="nonzero"/></clipPath><clipPath id="f49e0889ae"><path d="M 1.695312 21.207031 L 1.695312 63.867188 C 1.695312 72.128906 8.390625 78.824219 16.648438 78.824219 L 209.003906 78.824219 C 217.265625 78.824219 223.960938 72.128906 223.960938 63.867188 L 223.960938 21.207031 C 223.960938 12.949219 217.265625 6.253906 209.003906 6.253906 L 16.648438 6.253906 C 8.390625 6.253906 1.695312 12.949219 1.695312 21.207031 Z M 1.695312 21.207031 " clip-rule="nonzero"/></clipPath><clipPath id="2daca9fe57"><path d="M 66 12 L 76 12 L 76 36 L 66 36 Z M 66 12 " clip-rule="nonzero"/></clipPath><clipPath id="58cbeef57f"><path d="M 1.695312 21.207031 L 1.695312 63.867188 C 1.695312 72.128906 8.390625 78.824219 16.648438 78.824219 L 209.003906 78.824219 C 217.265625 78.824219 223.960938 72.128906 223.960938 63.867188 L 223.960938 21.207031 C 223.960938 12.949219 217.265625 6.253906 209.003906 6.253906 L 16.648438 6.253906 C 8.390625 6.253906 1.695312 12.949219 1.695312 21.207031 Z M 1.695312 21.207031 " clip-rule="nonzero"/></clipPath><clipPath id="b743183771"><path d="M 74 18 L 96 18 L 96 41 L 74 41 Z M 74 18 " clip-rule="nonzero"/></clipPath><clipPath id="32f055a837"><path d="M 1.695312 21.207031 L 1.695312 63.867188 C 1.695312 72.128906 8.390625 78.824219 16.648438 78.824219 L 209.003906 78.824219 C 217.265625 78.824219 223.960938 72.128906 223.960938 63.867188 L 223.960938 21.207031 C 223.960938 12.949219 217.265625 6.253906 209.003906 6.253906 L 16.648438 6.253906 C 8.390625 6.253906 1.695312 12.949219 1.695312 21.207031 Z M 1.695312 21.207031 " clip-rule="nonzero"/></clipPath><clipPath id="ccece040c2"><path d="M 93 20 L 104 20 L 104 44 L 93 44 Z M 93 20 " clip-rule="nonzero"/></clipPath><clipPath id="3d68ebfa96"><path d="M 1.695312 21.207031 L 1.695312 63.867188 C 1.695312 72.128906 8.390625 78.824219 16.648438 78.824219 L 209.003906 78.824219 C 217.265625 78.824219 223.960938 72.128906 223.960938 63.867188 L 223.960938 21.207031 C 223.960938 12.949219 217.265625 6.253906 209.003906 6.253906 L 16.648438 6.253906 C 8.390625 6.253906 1.695312 12.949219 1.695312 21.207031 Z M 1.695312 21.207031 " clip-rule="nonzero"/></clipPath><clipPath id="fe7d583fb0"><path d="M 102 29 L 121 29 L 121 49 L 102 49 Z M 102 29 " clip-rule="nonzero"/></clipPath><clipPath id="4cb0d4bd5b"><path d="M 1.695312 21.207031 L 1.695312 63.867188 C 1.695312 72.128906 8.390625 78.824219 16.648438 78.824219 L 209.003906 78.824219 C 217.265625 78.824219 223.960938 72.128906 223.960938 63.867188 L 223.960938 21.207031 C 223.960938 12.949219 217.265625 6.253906 209.003906 6.253906 L 16.648438 6.253906 C 8.390625 6.253906 1.695312 12.949219 1.695312 21.207031 Z M 1.695312 21.207031 " clip-rule="nonzero"/></clipPath><clipPath id="0b141f669c"><path d="M 120 35 L 142 35 L 142 59 L 120 59 Z M 120 35 " clip-rule="nonzero"/></clipPath><clipPath id="0efde3f3f7"><path d="M 1.695312 21.207031 L 1.695312 63.867188 C 1.695312 72.128906 8.390625 78.824219 16.648438 78.824219 L 209.003906 78.824219 C 217.265625 78.824219 223.960938 72.128906 223.960938 63.867188 L 223.960938 21.207031 C 223.960938 12.949219 217.265625 6.253906 209.003906 6.253906 L 16.648438 6.253906 C 8.390625 6.253906 1.695312 12.949219 1.695312 21.207031 Z M 1.695312 21.207031 " clip-rule="nonzero"/></clipPath><clipPath id="2ce5512b03"><path d="M 149 36 L 169 36 L 169 61 L 149 61 Z M 149 36 " clip-rule="nonzero"/></clipPath><clipPath id="ad7292b09c"><path d="M 1.695312 21.207031 L 1.695312 63.867188 C 1.695312 72.128906 8.390625 78.824219 16.648438 78.824219 L 209.003906 78.824219 C 217.265625 78.824219 223.960938 72.128906 223.960938 63.867188 L 223.960938 21.207031 C 223.960938 12.949219 217.265625 6.253906 209.003906 6.253906 L 16.648438 6.253906 C 8.390625 6.253906 1.695312 12.949219 1.695312 21.207031 Z M 1.695312 21.207031 " clip-rule="nonzero"/></clipPath><clipPath id="2d9b616b45"><path d="M 169 49 L 186 49 L 186 66 L 169 66 Z M 169 49 " clip-rule="nonzero"/></clipPath><clipPath id="51802bf77c"><path d="M 1.695312 21.207031 L 1.695312 63.867188 C 1.695312 72.128906 8.390625 78.824219 16.648438 78.824219 L 209.003906 78.824219 C 217.265625 78.824219 223.960938 72.128906 223.960938 63.867188 L 223.960938 21.207031 C 223.960938 12.949219 217.265625 6.253906 209.003906 6.253906 L 16.648438 6.253906 C 8.390625 6.253906 1.695312 12.949219 1.695312 21.207031 Z M 1.695312 21.207031 " clip-rule="nonzero"/></clipPath><clipPath id="a7b677366c"><path d="M 186 53 L 203 53 L 203 72 L 186 72 Z M 186 53 " clip-rule="nonzero"/></clipPath><clipPath id="e8a87513d0"><path d="M 1.695312 21.207031 L 1.695312 63.867188 C 1.695312 72.128906 8.390625 78.824219 16.648438 78.824219 L 209.003906 78.824219 C 217.265625 78.824219 223.960938 72.128906 223.960938 63.867188 L 223.960938 21.207031 C 223.960938 12.949219 217.265625 6.253906 209.003906 6.253906 L 16.648438 6.253906 C 8.390625 6.253906 1.695312 12.949219 1.695312 21.207031 Z M 1.695312 21.207031 " clip-rule="nonzero"/></clipPath><clipPath id="82cae65f83"><path d="M 204 57 L 218 57 L 218 74 L 204 74 Z M 204 57 " clip-rule="nonzero"/></clipPath><clipPath id="7179b23076"><path d="M 1.695312 21.207031 L 1.695312 63.867188 C 1.695312 72.128906 8.390625 78.824219 16.648438 78.824219 L 209.003906 78.824219 C 217.265625 78.824219 223.960938 72.128906 223.960938 63.867188 L 223.960938 21.207031 C 223.960938 12.949219 217.265625 6.253906 209.003906 6.253906 L 16.648438 6.253906 C 8.390625 6.253906 1.695312 12.949219 1.695312 21.207031 Z M 1.695312 21.207031 " clip-rule="nonzero"/></clipPath><clipPath id="4f9aab063f"><path d="M 1.695312 31.265625 L 210.890625 31.265625 L 210.890625 78.789062 L 1.695312 78.789062 Z M 1.695312 31.265625 " clip-rule="nonzero"/></clipPath><clipPath id="7ddf681573"><path d="M 1.695312 21.207031 L 1.695312 63.867188 C 1.695312 72.128906 8.390625 78.824219 16.648438 78.824219 L 209.003906 78.824219 C 217.265625 78.824219 223.960938 72.128906 223.960938 63.867188 L 223.960938 21.207031 C 223.960938 12.949219 217.265625 6.253906 209.003906 6.253906 L 16.648438 6.253906 C 8.390625 6.253906 1.695312 12.949219 1.695312 21.207031 Z M 1.695312 21.207031 " clip-rule="nonzero"/></clipPath><clipPath id="fee4aae013"><path d="M 35.765625 31.265625 L 210.8125 79.761719 L -139.277344 79.761719 Z M 35.765625 31.265625 " clip-rule="nonzero"/></clipPath><clipPath id="4343a5a39b"><path d="M 35.765625 31.265625 L 210.8125 79.761719 L -139.277344 79.761719 Z M 35.765625 31.265625 " clip-rule="nonzero"/></clipPath></defs><g clip-path="url(#ca3b62330e)"><g clip-path="url(#1d8b4c20fd)"><g clip-path="url(#ba99738234)"><g clip-path="url(#5c8bd44915)"><path fill="#5170ff" d="M -12.855469 5.964844 L 235.027344 5.964844 L 235.027344 79.761719 L -12.855469 79.761719 Z M -12.855469 5.964844 " fill-opacity="1" fill-rule="nonzero"/></g></g></g></g><g clip-path="url(#fc10e563df)"><g clip-path="url(#c2eaa7feb8)"><path fill="#e6e6e6" d="M 47.777344 29.457031 C 46.535156 29.105469 45.371094 28.605469 44.28125 27.949219 C 43.199219 27.300781 42.367188 26.628906 41.792969 25.929688 L 43.929688 23.601562 C 44.492188 24.257812 45.210938 24.859375 46.09375 25.402344 C 46.980469 25.949219 47.886719 26.347656 48.816406 26.605469 C 50.957031 27.207031 52.183594 26.941406 52.496094 25.8125 C 52.640625 25.28125 52.472656 24.839844 51.980469 24.480469 C 51.496094 24.113281 50.683594 23.671875 49.539062 23.148438 C 48.339844 22.605469 47.378906 22.097656 46.652344 21.628906 C 45.933594 21.15625 45.371094 20.527344 44.960938 19.746094 C 44.554688 18.960938 44.507812 18.019531 44.820312 16.917969 C 45.222656 15.46875 46.152344 14.484375 47.601562 13.964844 C 49.050781 13.433594 50.804688 13.457031 52.871094 14.03125 C 53.902344 14.324219 54.914062 14.730469 55.894531 15.261719 C 56.882812 15.792969 57.652344 16.347656 58.199219 16.929688 L 56.070312 19.269531 C 54.996094 18.140625 53.648438 17.347656 52.027344 16.894531 C 50.976562 16.601562 50.136719 16.539062 49.503906 16.710938 C 48.875 16.871094 48.488281 17.210938 48.347656 17.726562 C 48.183594 18.304688 48.359375 18.789062 48.875 19.1875 C 49.386719 19.578125 50.222656 20.046875 51.386719 20.601562 C 52.554688 21.136719 53.492188 21.640625 54.203125 22.109375 C 54.917969 22.574219 55.476562 23.183594 55.871094 23.929688 C 56.269531 24.671875 56.316406 25.585938 56.011719 26.675781 C 55.617188 28.101562 54.675781 29.066406 53.195312 29.574219 C 51.714844 30.089844 49.90625 30.046875 47.777344 29.457031 Z M 47.777344 29.457031 " fill-opacity="1" fill-rule="nonzero"/></g></g><g clip-path="url(#b6f03a622e)"><g clip-path="url(#f49e0889ae)"><path fill="#e6e6e6" d="M 63.75 10.839844 L 67.339844 11.832031 L 61.414062 33.039062 L 57.828125 32.046875 Z M 63.75 10.839844 " fill-opacity="1" fill-rule="nonzero"/></g></g><g clip-path="url(#2daca9fe57)"><g clip-path="url(#58cbeef57f)"><path fill="#e6e6e6" d="M 70.351562 19.09375 L 73.9375 20.085938 L 69.671875 35.347656 L 66.085938 34.351562 Z M 72.851562 17.082031 C 72.210938 16.902344 71.730469 16.550781 71.402344 16.019531 C 71.074219 15.480469 70.996094 14.90625 71.167969 14.289062 C 71.335938 13.683594 71.699219 13.238281 72.253906 12.957031 C 72.804688 12.671875 73.402344 12.617188 74.042969 12.792969 C 74.695312 12.976562 75.1875 13.320312 75.515625 13.832031 C 75.839844 14.347656 75.921875 14.902344 75.761719 15.492188 C 75.585938 16.117188 75.226562 16.585938 74.671875 16.894531 C 74.125 17.207031 73.519531 17.269531 72.851562 17.082031 Z M 72.851562 17.082031 " fill-opacity="1" fill-rule="nonzero"/></g></g><g clip-path="url(#b743183771)"><g clip-path="url(#32f055a837)"><path fill="#e6e6e6" d="M 95.210938 19.621094 L 89.285156 40.832031 L 85.863281 39.871094 L 86.414062 37.898438 C 85.625 38.457031 84.746094 38.796875 83.773438 38.914062 C 82.804688 39.035156 81.796875 38.953125 80.746094 38.65625 C 79.277344 38.25 78.050781 37.5625 77.066406 36.589844 C 76.074219 35.617188 75.410156 34.4375 75.066406 33.058594 C 74.730469 31.679688 74.777344 30.21875 75.207031 28.679688 C 75.640625 27.136719 76.359375 25.871094 77.355469 24.878906 C 78.351562 23.882812 79.53125 23.226562 80.886719 22.90625 C 82.242188 22.585938 83.648438 22.628906 85.117188 23.035156 C 86.125 23.324219 87.003906 23.753906 87.746094 24.332031 C 88.484375 24.902344 89.054688 25.613281 89.449219 26.46875 L 91.648438 18.628906 Z M 82.03125 35.722656 C 82.886719 35.957031 83.714844 35.976562 84.507812 35.78125 C 85.300781 35.582031 85.996094 35.175781 86.597656 34.566406 C 87.207031 33.953125 87.640625 33.171875 87.90625 32.21875 C 88.171875 31.269531 88.203125 30.378906 88 29.542969 C 87.804688 28.703125 87.421875 27.996094 86.84375 27.414062 C 86.265625 26.832031 85.550781 26.421875 84.695312 26.1875 C 83.835938 25.949219 83.011719 25.929688 82.21875 26.128906 C 81.421875 26.328125 80.722656 26.730469 80.113281 27.347656 C 79.511719 27.953125 79.082031 28.734375 78.816406 29.683594 C 78.550781 30.636719 78.515625 31.527344 78.710938 32.371094 C 78.914062 33.207031 79.300781 33.914062 79.878906 34.496094 C 80.457031 35.074219 81.171875 35.484375 82.03125 35.722656 Z M 82.03125 35.722656 " fill-opacity="1" fill-rule="nonzero"/></g></g><g clip-path="url(#ccece040c2)"><g clip-path="url(#3d68ebfa96)"><path fill="#e6e6e6" d="M 98.234375 26.878906 L 101.824219 27.871094 L 97.558594 43.132812 L 93.972656 42.140625 Z M 100.738281 24.871094 C 100.097656 24.691406 99.613281 24.335938 99.289062 23.804688 C 98.960938 23.269531 98.882812 22.691406 99.054688 22.078125 C 99.222656 21.46875 99.585938 21.023438 100.140625 20.746094 C 100.691406 20.457031 101.289062 20.402344 101.929688 20.582031 C 102.582031 20.761719 103.074219 21.105469 103.398438 21.621094 C 103.726562 22.136719 103.808594 22.691406 103.644531 23.28125 C 103.472656 23.90625 103.109375 24.371094 102.558594 24.683594 C 102.011719 24.996094 101.40625 25.054688 100.738281 24.871094 Z M 100.738281 24.871094 " fill-opacity="1" fill-rule="nonzero"/></g></g><g clip-path="url(#fe7d583fb0)"><g clip-path="url(#4cb0d4bd5b)"><path fill="#e6e6e6" d="M 115.210938 31.441406 C 117.132812 31.976562 118.515625 32.972656 119.359375 34.421875 C 120.203125 35.863281 120.320312 37.6875 119.707031 39.902344 L 117.265625 48.640625 L 113.691406 47.648438 L 116.003906 39.363281 C 116.378906 38.03125 116.34375 36.941406 115.898438 36.089844 C 115.460938 35.234375 114.664062 34.640625 113.503906 34.316406 C 112.1875 33.949219 111.039062 34.054688 110.058594 34.628906 C 109.082031 35.207031 108.386719 36.238281 107.964844 37.714844 L 105.816406 45.4375 L 102.226562 44.445312 L 106.492188 29.183594 L 109.894531 30.132812 L 109.34375 32.105469 C 110.128906 31.5625 111.019531 31.238281 112.019531 31.136719 C 113.015625 31.027344 114.078125 31.128906 115.210938 31.441406 Z M 115.210938 31.441406 " fill-opacity="1" fill-rule="nonzero"/></g></g><g clip-path="url(#0b141f669c)"><g clip-path="url(#0efde3f3f7)"><path fill="#e6e6e6" d="M 141.21875 38.878906 L 137.597656 51.828125 C 136.101562 57.195312 132.609375 59.109375 127.128906 57.578125 C 125.65625 57.171875 124.3125 56.597656 123.097656 55.859375 C 121.886719 55.117188 120.953125 54.277344 120.292969 53.335938 L 122.652344 51.101562 C 123.160156 51.832031 123.871094 52.507812 124.792969 53.125 C 125.71875 53.746094 126.707031 54.203125 127.757812 54.492188 C 129.433594 54.960938 130.765625 54.917969 131.753906 54.375 C 132.75 53.835938 133.464844 52.785156 133.90625 51.21875 L 134.125 50.425781 C 133.332031 50.929688 132.449219 51.230469 131.472656 51.324219 C 130.507812 51.417969 129.5 51.316406 128.449219 51.019531 C 127 50.617188 125.777344 49.941406 124.78125 49 C 123.789062 48.050781 123.109375 46.917969 122.734375 45.609375 C 122.367188 44.296875 122.386719 42.910156 122.792969 41.460938 C 123.195312 40.023438 123.894531 38.839844 124.882812 37.910156 C 125.878906 36.984375 127.050781 36.378906 128.390625 36.097656 C 129.726562 35.820312 131.125 35.882812 132.574219 36.285156 C 133.675781 36.597656 134.632812 37.0625 135.4375 37.675781 C 136.234375 38.285156 136.839844 39.042969 137.246094 39.957031 L 137.820312 37.933594 Z M 129.839844 48.148438 C 131.199219 48.53125 132.425781 48.4375 133.519531 47.867188 C 134.609375 47.300781 135.332031 46.363281 135.691406 45.0625 C 136.050781 43.792969 135.90625 42.640625 135.261719 41.601562 C 134.621094 40.558594 133.617188 39.847656 132.257812 39.464844 C 130.882812 39.085938 129.65625 39.171875 128.566406 39.734375 C 127.480469 40.289062 126.761719 41.199219 126.402344 42.46875 C 126.042969 43.769531 126.183594 44.945312 126.824219 45.996094 C 127.460938 47.046875 128.464844 47.765625 129.839844 48.148438 Z M 129.839844 48.148438 " fill-opacity="1" fill-rule="nonzero"/></g></g><g clip-path="url(#2ce5512b03)"><g clip-path="url(#ad7292b09c)"><path fill="#e6e6e6" d="M 162.296875 44.585938 C 163.773438 45 165.011719 45.691406 166 46.667969 C 166.988281 47.640625 167.652344 48.8125 167.988281 50.183594 C 168.328125 51.546875 168.28125 53 167.847656 54.542969 C 167.417969 56.085938 166.703125 57.359375 165.707031 58.363281 C 164.710938 59.367188 163.535156 60.027344 162.179688 60.351562 C 160.824219 60.667969 159.40625 60.621094 157.925781 60.210938 C 156.875 59.921875 155.964844 59.472656 155.191406 58.867188 C 154.429688 58.257812 153.851562 57.507812 153.464844 56.621094 L 152.914062 58.597656 L 149.515625 57.648438 L 155.4375 36.441406 L 159.027344 37.433594 L 156.839844 45.242188 C 157.636719 44.742188 158.492188 44.441406 159.410156 44.339844 C 160.335938 44.234375 161.296875 44.3125 162.296875 44.585938 Z M 158.371094 57.03125 C 159.6875 57.40625 160.890625 57.269531 161.980469 56.632812 C 163.070312 55.996094 163.816406 54.960938 164.214844 53.523438 C 164.609375 52.101562 164.507812 50.835938 163.910156 49.726562 C 163.308594 48.613281 162.351562 47.871094 161.035156 47.496094 C 160.175781 47.261719 159.351562 47.246094 158.558594 47.449219 C 157.761719 47.644531 157.0625 48.050781 156.453125 48.664062 C 155.851562 49.273438 155.421875 50.050781 155.15625 51 C 154.890625 51.953125 154.855469 52.847656 155.054688 53.6875 C 155.253906 54.523438 155.644531 55.230469 156.222656 55.816406 C 156.796875 56.394531 157.511719 56.796875 158.371094 57.03125 Z M 158.371094 57.03125 " fill-opacity="1" fill-rule="nonzero"/></g></g><g clip-path="url(#2d9b616b45)"><g clip-path="url(#51802bf77c)"><path fill="#e6e6e6" d="M 185.566406 59.59375 C 185.496094 59.835938 185.382812 60.179688 185.226562 60.621094 L 173.25 57.28125 C 173.148438 58.46875 173.445312 59.511719 174.140625 60.414062 C 174.839844 61.316406 175.847656 61.953125 177.164062 62.316406 C 178.839844 62.789062 180.371094 62.625 181.769531 61.816406 L 183.078125 64.550781 C 182.15625 65.179688 181.113281 65.558594 179.945312 65.683594 C 178.785156 65.8125 177.546875 65.695312 176.230469 65.320312 C 174.554688 64.851562 173.171875 64.109375 172.082031 63.089844 C 171 62.070312 170.269531 60.867188 169.898438 59.488281 C 169.53125 58.105469 169.558594 56.65625 169.980469 55.140625 C 170.398438 53.65625 171.117188 52.414062 172.128906 51.414062 C 173.140625 50.410156 174.339844 49.742188 175.726562 49.417969 C 177.113281 49.089844 178.558594 49.132812 180.0625 49.546875 C 181.539062 49.964844 182.777344 50.667969 183.765625 51.648438 C 184.761719 52.628906 185.421875 53.808594 185.742188 55.1875 C 186.058594 56.5625 186 58.027344 185.566406 59.59375 Z M 179.257812 52.394531 C 178.113281 52.078125 177.046875 52.148438 176.066406 52.605469 C 175.089844 53.066406 174.363281 53.832031 173.882812 54.910156 L 182.539062 57.328125 C 182.6875 56.175781 182.464844 55.148438 181.875 54.242188 C 181.289062 53.339844 180.417969 52.722656 179.257812 52.394531 Z M 179.257812 52.394531 " fill-opacity="1" fill-rule="nonzero"/></g></g><g clip-path="url(#a7b677366c)"><g clip-path="url(#e8a87513d0)"><path fill="#e6e6e6" d="M 197.027344 54.285156 C 199.277344 54.917969 200.847656 55.9375 201.738281 57.347656 C 202.632812 58.75 202.777344 60.535156 202.167969 62.699219 L 199.667969 71.648438 L 196.304688 70.714844 L 196.816406 68.855469 C 196.1875 69.402344 195.414062 69.738281 194.503906 69.863281 C 193.597656 69.984375 192.578125 69.886719 191.429688 69.570312 C 190.292969 69.25 189.347656 68.777344 188.59375 68.144531 C 187.84375 67.511719 187.332031 66.785156 187.0625 65.960938 C 186.796875 65.136719 186.785156 64.285156 187.027344 63.410156 C 187.414062 62.042969 188.234375 61.082031 189.480469 60.539062 C 190.722656 59.992188 192.441406 60.027344 194.632812 60.640625 L 198.582031 61.742188 L 198.640625 61.519531 C 198.945312 60.445312 198.855469 59.53125 198.371094 58.785156 C 197.894531 58.035156 197.03125 57.488281 195.777344 57.136719 C 194.917969 56.898438 194.039062 56.796875 193.136719 56.832031 C 192.230469 56.867188 191.425781 57.039062 190.71875 57.359375 L 190.042969 54.367188 C 191.015625 53.980469 192.109375 53.78125 193.324219 53.773438 C 194.539062 53.765625 195.773438 53.933594 197.027344 54.285156 Z M 192.902344 67.1875 C 193.792969 67.433594 194.644531 67.453125 195.460938 67.246094 C 196.28125 67.027344 196.933594 66.574219 197.425781 65.890625 L 197.917969 64.113281 L 194.222656 63.085938 C 192.167969 62.507812 190.953125 62.898438 190.578125 64.253906 C 190.398438 64.902344 190.511719 65.488281 190.917969 66.019531 C 191.320312 66.539062 191.984375 66.929688 192.902344 67.1875 Z M 192.902344 67.1875 " fill-opacity="1" fill-rule="nonzero"/></g></g><g clip-path="url(#82cae65f83)"><g clip-path="url(#7179b23076)"><path fill="#e6e6e6" d="M 211.261719 60.847656 C 212.742188 59.539062 214.78125 59.246094 217.375 59.96875 L 216.417969 63.359375 C 216.136719 63.21875 215.871094 63.113281 215.621094 63.042969 C 214.234375 62.65625 213.039062 62.757812 212.035156 63.347656 C 211.03125 63.941406 210.3125 64.996094 209.882812 66.515625 L 207.816406 73.921875 L 204.230469 72.929688 L 208.492188 57.667969 L 211.894531 58.613281 Z M 211.261719 60.847656 " fill-opacity="1" fill-rule="nonzero"/></g></g><g clip-path="url(#4f9aab063f)"><g clip-path="url(#7ddf681573)"><g clip-path="url(#fee4aae013)"><g clip-path="url(#4343a5a39b)"><path fill="#e6e6e6" d="M -139.277344 31.265625 L 210.75 31.265625 L 210.75 79.761719 L -139.277344 79.761719 Z M -139.277344 31.265625 " fill-opacity="1" fill-rule="nonzero"/></g></g></g></g></svg>