<svg xmlns="http://www.w3.org/2000/svg" xmlns:xlink="http://www.w3.org/1999/xlink" width="500" zoomAndPan="magnify" viewBox="0 0 375 187.499995" height="250" preserveAspectRatio="xMidYMid meet" version="1.0"><defs><g/><clipPath id="02490e9b3f"><path d="M 0.5 0 L 374.5 0 L 374.5 187 L 0.5 187 Z M 0.5 0 " clip-rule="nonzero"/></clipPath><clipPath id="088e21e244"><path d="M -63.175781 0 L 285.988281 0 C 334.871094 0 374.5 39.628906 374.5 88.515625 L 374.5 99.351562 C 374.5 148.238281 334.871094 187.867188 285.988281 187.867188 L -63.175781 187.867188 C -112.058594 187.867188 -151.6875 148.238281 -151.6875 99.351562 L -151.6875 88.515625 C -151.6875 39.628906 -112.058594 0 -63.175781 0 Z M -63.175781 0 " clip-rule="nonzero"/></clipPath><clipPath id="2919094d53"><path d="M 0.5 0 L 374.5 0 L 374.5 187 L 0.5 187 Z M 0.5 0 " clip-rule="nonzero"/></clipPath><clipPath id="11d626a37f"><path d="M -63.175781 0 L 285.988281 0 C 334.871094 0 374.5 39.628906 374.5 88.515625 L 374.5 99.351562 C 374.5 148.238281 334.871094 187.867188 285.988281 187.867188 L -63.175781 187.867188 C -112.058594 187.867188 -151.6875 148.238281 -151.6875 99.351562 L -151.6875 88.515625 C -151.6875 39.628906 -112.058594 0 -63.175781 0 Z M -63.175781 0 " clip-rule="nonzero"/></clipPath><clipPath id="924fb74741"><rect x="0" width="375" y="0" height="187"/></clipPath><clipPath id="a8b641fb3d"><rect x="0" width="290" y="0" height="187"/></clipPath><clipPath id="111521f59c"><path d="M 0.5 30.914062 L 296 30.914062 L 296 187 L 0.5 187 Z M 0.5 30.914062 " clip-rule="nonzero"/></clipPath><clipPath id="3671a5be76"><path d="M 32.324219 30.914062 L 295.433594 187 L -230.789062 187 Z M 32.324219 30.914062 " clip-rule="nonzero"/></clipPath><clipPath id="75e03d443b"><path d="M 0.5 0.914062 L 295.632812 0.914062 L 295.632812 157 L 0.5 157 Z M 0.5 0.914062 " clip-rule="nonzero"/></clipPath><clipPath id="98c59d44fc"><path d="M 32.324219 0.914062 L 295.433594 157 L -230.789062 157 Z M 32.324219 0.914062 " clip-rule="nonzero"/></clipPath><clipPath id="e43e546a01"><rect x="0" width="296" y="0" height="157"/></clipPath></defs><g clip-path="url(#02490e9b3f)"><g clip-path="url(#088e21e244)"><g transform="matrix(1, 0, 0, 1, 0, 0)"><g clip-path="url(#924fb74741)"><g clip-path="url(#2919094d53)"><g clip-path="url(#11d626a37f)"><path fill="#5170ff" d="M -151.6875 0 L 374.5 0 L 374.5 187.65625 L -151.6875 187.65625 Z M -151.6875 0 " fill-opacity="1" fill-rule="nonzero"/></g></g></g></g></g></g><g transform="matrix(1, 0, 0, 1, 41, 0)"><g clip-path="url(#a8b641fb3d)"><g fill="#e6e6e6" fill-opacity="1"><g transform="translate(8.404155, 31.293365)"><g><path d="M 13.109375 8.296875 C 10.796875 6.929688 8.75 5.28125 6.96875 3.34375 C 5.1875 1.414062 3.992188 -0.457031 3.390625 -2.28125 L 7.859375 -5.5 C 8.515625 -3.800781 9.554688 -2.117188 10.984375 -0.453125 C 12.421875 1.210938 14.039062 2.578125 15.84375 3.640625 C 18.082031 4.953125 19.960938 5.570312 21.484375 5.5 C 23.003906 5.4375 24.109375 4.816406 24.796875 3.640625 C 25.304688 2.773438 25.414062 1.882812 25.125 0.96875 C 24.84375 0.0507812 24.316406 -0.835938 23.546875 -1.703125 C 22.785156 -2.578125 21.707031 -3.695312 20.3125 -5.0625 C 18.34375 -6.945312 16.804688 -8.578125 15.703125 -9.953125 C 14.609375 -11.335938 13.894531 -12.910156 13.5625 -14.671875 C 13.238281 -16.429688 13.65625 -18.300781 14.8125 -20.28125 C 15.789062 -21.9375 17.128906 -23.175781 18.828125 -24 C 20.523438 -24.832031 22.519531 -25.117188 24.8125 -24.859375 C 27.101562 -24.597656 29.566406 -23.695312 32.203125 -22.15625 C 34.046875 -21.070312 35.71875 -19.773438 37.21875 -18.265625 C 38.71875 -16.765625 39.867188 -15.207031 40.671875 -13.59375 L 36.34375 -10.28125 C 35.476562 -11.832031 34.445312 -13.226562 33.25 -14.46875 C 32.050781 -15.707031 30.773438 -16.722656 29.421875 -17.515625 C 27.222656 -18.804688 25.363281 -19.394531 23.84375 -19.28125 C 22.332031 -19.175781 21.21875 -18.507812 20.5 -17.28125 C 19.988281 -16.414062 19.878906 -15.53125 20.171875 -14.625 C 20.472656 -13.71875 21.003906 -12.828125 21.765625 -11.953125 C 22.523438 -11.085938 23.601562 -9.972656 25 -8.609375 C 26.945312 -6.785156 28.46875 -5.171875 29.5625 -3.765625 C 30.664062 -2.367188 31.390625 -0.800781 31.734375 0.9375 C 32.078125 2.6875 31.675781 4.535156 30.53125 6.484375 C 29.550781 8.148438 28.210938 9.390625 26.515625 10.203125 C 24.828125 11.015625 22.832031 11.285156 20.53125 11.015625 C 18.226562 10.742188 15.753906 9.835938 13.109375 8.296875 Z M 13.109375 8.296875 "/></g></g></g><g fill="#e6e6e6" fill-opacity="1"><g transform="translate(35.447972, 47.182924)"><g><path d="M 22.28125 -29.828125 L 27.65625 -26.671875 L 8.90625 5.234375 L 3.53125 2.078125 Z M 22.28125 -29.828125 "/></g></g></g><g fill="#e6e6e6" fill-opacity="1"><g transform="translate(47.873503, 54.483529)"><g><path d="M 17.015625 -20.875 L 22.390625 -17.71875 L 8.90625 5.234375 L 3.53125 2.078125 Z M 21.953125 -23.0625 C 20.972656 -23.644531 20.332031 -24.4375 20.03125 -25.4375 C 19.726562 -26.445312 19.847656 -27.40625 20.390625 -28.3125 C 20.921875 -29.226562 21.695312 -29.800781 22.71875 -30.03125 C 23.75 -30.269531 24.753906 -30.097656 25.734375 -29.515625 C 26.703125 -28.953125 27.34375 -28.179688 27.65625 -27.203125 C 27.976562 -26.222656 27.878906 -25.289062 27.359375 -24.40625 C 26.796875 -23.457031 26.003906 -22.847656 24.984375 -22.578125 C 23.960938 -22.316406 22.953125 -22.476562 21.953125 -23.0625 Z M 21.953125 -23.0625 "/></g></g></g><g fill="#e6e6e6" fill-opacity="1"><g transform="translate(60.299035, 61.784134)"><g><path d="M 44.765625 -16.625 L 26.015625 15.28125 L 20.859375 12.25 L 22.59375 9.28125 C 21.0625 9.851562 19.484375 10.023438 17.859375 9.796875 C 16.234375 9.578125 14.640625 9.003906 13.078125 8.078125 C 10.859375 6.773438 9.15625 5.117188 7.96875 3.109375 C 6.78125 1.109375 6.207031 -1.082031 6.25 -3.46875 C 6.300781 -5.851562 7.007812 -8.207031 8.375 -10.53125 C 9.726562 -12.84375 11.429688 -14.585938 13.484375 -15.765625 C 15.535156 -16.953125 17.726562 -17.519531 20.0625 -17.46875 C 22.394531 -17.414062 24.671875 -16.738281 26.890625 -15.4375 C 28.398438 -14.539062 29.632812 -13.460938 30.59375 -12.203125 C 31.5625 -10.941406 32.179688 -9.535156 32.453125 -7.984375 L 39.390625 -19.78125 Z M 16.421875 3.859375 C 17.703125 4.617188 19.03125 5.003906 20.40625 5.015625 C 21.789062 5.035156 23.101562 4.675781 24.34375 3.9375 C 25.582031 3.207031 26.625 2.125 27.46875 0.6875 C 28.3125 -0.75 28.75 -2.1875 28.78125 -3.625 C 28.820312 -5.0625 28.5 -6.375 27.8125 -7.5625 C 27.125 -8.757812 26.140625 -9.738281 24.859375 -10.5 C 23.566406 -11.257812 22.226562 -11.644531 20.84375 -11.65625 C 19.457031 -11.675781 18.144531 -11.320312 16.90625 -10.59375 C 15.675781 -9.863281 14.640625 -8.78125 13.796875 -7.34375 C 12.953125 -5.90625 12.507812 -4.460938 12.46875 -3.015625 C 12.425781 -1.578125 12.75 -0.265625 13.4375 0.921875 C 14.132812 2.117188 15.128906 3.097656 16.421875 3.859375 Z M 16.421875 3.859375 "/></g></g></g><g fill="#e6e6e6" fill-opacity="1"><g transform="translate(89.836569, 79.138873)"><g><path d="M 17.015625 -20.875 L 22.390625 -17.71875 L 8.90625 5.234375 L 3.53125 2.078125 Z M 21.953125 -23.0625 C 20.972656 -23.644531 20.332031 -24.4375 20.03125 -25.4375 C 19.726562 -26.445312 19.847656 -27.40625 20.390625 -28.3125 C 20.921875 -29.226562 21.695312 -29.800781 22.71875 -30.03125 C 23.75 -30.269531 24.753906 -30.097656 25.734375 -29.515625 C 26.703125 -28.953125 27.34375 -28.179688 27.65625 -27.203125 C 27.976562 -26.222656 27.878906 -25.289062 27.359375 -24.40625 C 26.796875 -23.457031 26.003906 -22.847656 24.984375 -22.578125 C 23.960938 -22.316406 22.953125 -22.476562 21.953125 -23.0625 Z M 21.953125 -23.0625 "/></g></g></g><g fill="#e6e6e6" fill-opacity="1"><g transform="translate(102.262101, 86.439478)"><g><path d="M 30.203125 -13.484375 C 33.085938 -11.785156 34.90625 -9.578125 35.65625 -6.859375 C 36.414062 -4.140625 35.816406 -1.113281 33.859375 2.21875 L 26.140625 15.359375 L 20.765625 12.203125 L 28.09375 -0.265625 C 29.269531 -2.273438 29.6875 -4.066406 29.34375 -5.640625 C 29 -7.210938 27.945312 -8.515625 26.1875 -9.546875 C 24.21875 -10.703125 22.304688 -11.019531 20.453125 -10.5 C 18.609375 -9.976562 17.035156 -8.601562 15.734375 -6.375 L 8.90625 5.234375 L 3.53125 2.078125 L 17.015625 -20.875 L 22.125 -17.875 L 20.390625 -14.90625 C 21.898438 -15.445312 23.488281 -15.59375 25.15625 -15.34375 C 26.820312 -15.101562 28.503906 -14.484375 30.203125 -13.484375 Z M 30.203125 -13.484375 "/></g></g></g><g fill="#e6e6e6" fill-opacity="1"><g transform="translate(131.713643, 103.743693)"><g><path d="M 39.796875 -7.5 L 28.359375 11.984375 C 23.609375 20.054688 17.101562 21.671875 8.84375 16.828125 C 6.632812 15.523438 4.707031 14.015625 3.0625 12.296875 C 1.414062 10.578125 0.257812 8.804688 -0.40625 6.984375 L 4.375 4.359375 C 4.894531 5.785156 5.773438 7.195312 7.015625 8.59375 C 8.253906 9.988281 9.664062 11.15625 11.25 12.09375 C 13.757812 13.5625 15.9375 14.066406 17.78125 13.609375 C 19.632812 13.160156 21.25 11.757812 22.625 9.40625 L 23.328125 8.21875 C 21.828125 8.6875 20.265625 8.789062 18.640625 8.53125 C 17.015625 8.269531 15.421875 7.675781 13.859375 6.75 C 11.671875 5.46875 9.96875 3.84375 8.75 1.875 C 7.539062 -0.09375 6.921875 -2.222656 6.890625 -4.515625 C 6.867188 -6.804688 7.492188 -9.039062 8.765625 -11.21875 C 10.054688 -13.394531 11.703125 -15.019531 13.703125 -16.09375 C 15.703125 -17.175781 17.851562 -17.65625 20.15625 -17.53125 C 22.457031 -17.414062 24.703125 -16.71875 26.890625 -15.4375 C 28.546875 -14.457031 29.894531 -13.296875 30.9375 -11.953125 C 31.976562 -10.609375 32.625 -9.101562 32.875 -7.4375 L 34.671875 -10.5 Z M 17.328125 2.65625 C 19.367188 3.851562 21.398438 4.226562 23.421875 3.78125 C 25.441406 3.332031 27.019531 2.128906 28.15625 0.171875 C 29.289062 -1.742188 29.5625 -3.6875 28.96875 -5.65625 C 28.375 -7.625 27.054688 -9.207031 25.015625 -10.40625 C 22.960938 -11.613281 20.925781 -12 18.90625 -11.5625 C 16.894531 -11.125 15.320312 -9.945312 14.1875 -8.03125 C 13.050781 -6.070312 12.773438 -4.101562 13.359375 -2.125 C 13.953125 -0.144531 15.273438 1.445312 17.328125 2.65625 Z M 17.328125 2.65625 "/></g></g></g><g fill="#e6e6e6" fill-opacity="1"><g transform="translate(161.552141, 121.275263)"><g><path d="M 34.5625 -0.75 C 35.90625 0.78125 36.6875 2.46875 36.90625 4.3125 C 37.132812 6.164062 36.691406 8.039062 35.578125 9.9375 C 34.046875 12.539062 31.859375 13.957031 29.015625 14.1875 C 26.179688 14.425781 22.84375 13.414062 19 11.15625 L 4.046875 2.375 L 21.734375 -27.71875 L 35.828125 -19.4375 C 39.378906 -17.351562 41.707031 -15.050781 42.8125 -12.53125 C 43.914062 -10.007812 43.75 -7.53125 42.3125 -5.09375 C 41.4375 -3.601562 40.316406 -2.484375 38.953125 -1.734375 C 37.597656 -0.992188 36.132812 -0.664062 34.5625 -0.75 Z M 24.734375 -20.046875 L 19.84375 -11.75 L 27.765625 -7.09375 C 29.710938 -5.957031 31.414062 -5.429688 32.875 -5.515625 C 34.34375 -5.597656 35.472656 -6.316406 36.265625 -7.671875 C 37.078125 -9.046875 37.164062 -10.390625 36.53125 -11.703125 C 35.894531 -13.023438 34.601562 -14.253906 32.65625 -15.390625 Z M 21.234375 6.59375 C 25.566406 9.132812 28.582031 8.953125 30.28125 6.046875 C 31.976562 3.160156 30.660156 0.445312 26.328125 -2.09375 L 17.296875 -7.40625 L 12.203125 1.28125 Z M 21.234375 6.59375 "/></g></g></g><g fill="#e6e6e6" fill-opacity="1"><g transform="translate(194.271295, 140.499359)"><g><path d="M 31.78125 3.40625 C 31.5625 3.769531 31.21875 4.285156 30.75 4.953125 L 12.734375 -5.640625 C 12.066406 -3.765625 12.109375 -1.9375 12.859375 -0.15625 C 13.609375 1.613281 14.96875 3.078125 16.9375 4.234375 C 19.46875 5.710938 22.035156 6.101562 24.640625 5.40625 L 25.578125 10.40625 C 23.828125 11.03125 21.976562 11.191406 20.03125 10.890625 C 18.082031 10.597656 16.125 9.867188 14.15625 8.703125 C 11.625 7.222656 9.691406 5.414062 8.359375 3.28125 C 7.023438 1.15625 6.359375 -1.109375 6.359375 -3.515625 C 6.367188 -5.921875 7.039062 -8.257812 8.375 -10.53125 C 9.6875 -12.757812 11.378906 -14.46875 13.453125 -15.65625 C 15.523438 -16.851562 17.757812 -17.421875 20.15625 -17.359375 C 22.550781 -17.304688 24.878906 -16.613281 27.140625 -15.28125 C 29.378906 -13.96875 31.085938 -12.300781 32.265625 -10.28125 C 33.441406 -8.257812 34 -6.0625 33.9375 -3.6875 C 33.875 -1.3125 33.15625 1.050781 31.78125 3.40625 Z M 24.609375 -10.984375 C 22.890625 -11.992188 21.132812 -12.335938 19.34375 -12.015625 C 17.5625 -11.691406 16.046875 -10.765625 14.796875 -9.234375 L 27.8125 -1.578125 C 28.5625 -3.367188 28.648438 -5.128906 28.078125 -6.859375 C 27.515625 -8.585938 26.359375 -9.960938 24.609375 -10.984375 Z M 24.609375 -10.984375 "/></g></g></g><g fill="#e6e6e6" fill-opacity="1"><g transform="translate(221.014148, 156.212087)"><g><path d="M 25.9375 -15.984375 C 29.3125 -14.003906 31.414062 -11.675781 32.25 -9 C 33.09375 -6.332031 32.554688 -3.363281 30.640625 -0.09375 L 22.734375 13.359375 L 17.65625 10.375 L 19.296875 7.59375 C 18.054688 8.195312 16.671875 8.40625 15.140625 8.21875 C 13.617188 8.039062 11.992188 7.445312 10.265625 6.4375 C 8.554688 5.425781 7.226562 4.25 6.28125 2.90625 C 5.332031 1.5625 4.8125 0.160156 4.71875 -1.296875 C 4.632812 -2.753906 4.976562 -4.144531 5.75 -5.46875 C 6.96875 -7.53125 8.710938 -8.734375 10.984375 -9.078125 C 13.253906 -9.429688 16.035156 -8.640625 19.328125 -6.703125 L 25.25 -3.21875 L 25.4375 -3.546875 C 26.382812 -5.160156 26.628906 -6.675781 26.171875 -8.09375 C 25.722656 -9.507812 24.554688 -10.773438 22.671875 -11.890625 C 21.378906 -12.648438 19.992188 -13.195312 18.515625 -13.53125 C 17.035156 -13.863281 15.648438 -13.925781 14.359375 -13.71875 L 14.546875 -18.859375 C 16.285156 -19.066406 18.144531 -18.914062 20.125 -18.40625 C 22.101562 -17.90625 24.039062 -17.097656 25.9375 -15.984375 Z M 13.6875 3.1875 C 15.03125 3.976562 16.40625 4.375 17.8125 4.375 C 19.21875 4.375 20.472656 3.921875 21.578125 3.015625 L 23.140625 0.359375 L 17.609375 -2.890625 C 14.515625 -4.710938 12.367188 -4.609375 11.171875 -2.578125 C 10.609375 -1.597656 10.539062 -0.597656 10.96875 0.421875 C 11.40625 1.453125 12.3125 2.375 13.6875 3.1875 Z M 13.6875 3.1875 "/></g></g></g><g fill="#e6e6e6" fill-opacity="1"><g transform="translate(247.112087, 171.545897)"><g><path d="M 20.15625 -14.515625 C 23.125 -16.023438 26.554688 -15.632812 30.453125 -13.34375 L 27.4375 -8.21875 C 27.03125 -8.582031 26.640625 -8.875 26.265625 -9.09375 C 24.171875 -10.320312 22.179688 -10.671875 20.296875 -10.140625 C 18.410156 -9.609375 16.789062 -8.191406 15.4375 -5.890625 L 8.90625 5.234375 L 3.53125 2.078125 L 17.015625 -20.875 L 22.125 -17.875 Z M 20.15625 -14.515625 "/></g></g></g></g></g><g clip-path="url(#111521f59c)"><g clip-path="url(#3671a5be76)"><g transform="matrix(1, 0, 0, 1, 0, 30)"><g clip-path="url(#e43e546a01)"><g clip-path="url(#75e03d443b)"><g clip-path="url(#98c59d44fc)"><path fill="#e6e6e6" d="M -230.789062 0.914062 L 295.398438 0.914062 L 295.398438 157 L -230.789062 157 Z M -230.789062 0.914062 " fill-opacity="1" fill-rule="nonzero"/></g></g></g></g></g></g></svg>